<svg xmlns="http://www.w3.org/2000/svg" viewBox="0 0 100.34 100.34"><defs><style>.cls-1{fill:#ea3d81;}.cls-2{fill:#fff;}</style></defs><g id="Capa_2" data-name="Capa 2"><g id="Capa_1-2" data-name="Capa 1"><path class="cls-1" d="M100.34,50.17A50.17,50.17,0,1,1,50.17,0a50.17,50.17,0,0,1,50.17,50.17"/><path class="cls-2" d="M34.21,53.05H21.54a7.07,7.07,0,0,1-4.83-1.64,5.94,5.94,0,0,1-1.87-4.73V33.56h2.55V47.13a3.81,3.81,0,0,0,1.27,2.64,4,4,0,0,0,2.86.8H34.21Z"/><path class="cls-2" d="M64.71,53.05H62.16V41.89a5.92,5.92,0,0,0-11.83,0V53.05H47.79V42.16A8.5,8.5,0,0,1,50.2,36a8.67,8.67,0,0,1,12.1,0,8.5,8.5,0,0,1,2.41,6.19Z"/><path class="cls-2" d="M85.5,43.47v9.58H83v-3a9.55,9.55,0,0,1-14.33.37,9.74,9.74,0,0,1-2.78-6.94,9.84,9.84,0,0,1,3-7.19A9.16,9.16,0,0,1,76,33.48a9.62,9.62,0,0,1,6.84,3.06,9.2,9.2,0,0,1,2.68,6.93M83,43.28a7.44,7.44,0,0,0-2.16-5.17,6.7,6.7,0,0,0-5-2.15,7.1,7.1,0,0,0-5.21,2.15,7.19,7.19,0,0,0-2.18,5.2,7.38,7.38,0,0,0,2,5.3,7,7,0,0,0,5,2.4,6.76,6.76,0,0,0,5.39-2.2A7.48,7.48,0,0,0,83,43.28"/><path class="cls-2" d="M35.45,46.06c-7,0-12.72-6.6-12.72-14.75a16.85,16.85,0,0,1,.28-3,16.49,16.49,0,0,0-1.17,6.14c0,8.15,5.7,14.76,12.71,14.76,6.13,0,11.24-5,12.44-11.72-2,5.08-6.42,8.61-11.54,8.61"/><path class="cls-2" d="M27.06,61.28A3.72,3.72,0,0,1,23.37,65H20.86V57.58H23a4.13,4.13,0,0,1,2.91,1.06,3.48,3.48,0,0,1,1.15,2.64m-.75-.1a2.76,2.76,0,0,0-1-2.07,3.23,3.23,0,0,0-2.21-.83H21.57v6h1.76a2.85,2.85,0,0,0,2.13-.92,2.92,2.92,0,0,0,.85-2.18"/><path class="cls-2" d="M31.75,65H29.63a2,2,0,0,1-1.37-.47,1.65,1.65,0,0,1-.54-1.34V59.4a1.65,1.65,0,0,1,.54-1.34,2,2,0,0,1,1.37-.48h2.12v.7H29.62a1.08,1.08,0,0,0-.8.23,1.11,1.11,0,0,0-.37.77v1.59h2.47v.71H28.45v1.7a1.09,1.09,0,0,0,.37.77,1.12,1.12,0,0,0,.8.23h2.13Z"/><path class="cls-2" d="M54.4,71.71h-2v-9a4.49,4.49,0,0,0-1-2.91,3.16,3.16,0,0,0-2.57-1.21A4,4,0,0,0,46,59.65a3.39,3.39,0,0,0-1.16,2.62v9.44H42.8V62.27a3.36,3.36,0,0,0-1.16-2.62,4,4,0,0,0-2.8-1.06,3.08,3.08,0,0,0-2.54,1.2,4.5,4.5,0,0,0-1,2.92v9h-2V62.94a6.2,6.2,0,0,1,1.57-4.43,5.76,5.76,0,0,1,3.86-1.77,5.23,5.23,0,0,1,5.08,2.73,5.27,5.27,0,0,1,5.1-2.73,5.87,5.87,0,0,1,3.88,1.77,6.13,6.13,0,0,1,1.59,4.43Z"/><path class="cls-2" d="M58.47,55.3H56.52V51.88h1.95Zm0,16.41H56.52V57.05h1.95Z"/><path class="cls-2" d="M75.78,65.05H62.61a5.46,5.46,0,0,0,1.88,3.65,5.57,5.57,0,0,0,3.88,1.41,5.2,5.2,0,0,0,5-3.21h2.08a7.61,7.61,0,0,1-7.13,5.17A7.24,7.24,0,0,1,63,69.87a7.64,7.64,0,0,1,0-11,7.17,7.17,0,0,1,5.67-2.2,7.53,7.53,0,0,1,5.1,2.41A7.1,7.1,0,0,1,75.78,64Zm-1.93-1.8a5.64,5.64,0,0,0-1.93-3.33,5.72,5.72,0,0,0-9.31,3.33Z"/><rect class="cls-2" x="77.53" y="54" width="1.95" height="17.71"/></g></g></svg>