<svg xmlns="http://www.w3.org/2000/svg" viewBox="0 0 48.6 48.36"><defs><style>.cls-1,.cls-2{fill:#fff;}.cls-1{fill-rule:evenodd;}</style></defs><g id="Capa_2" data-name="Capa 2"><g id="Capa_1-2" data-name="Capa 1"><path class="cls-1" d="M48.6,24.18A24.3,24.3,0,1,0,24.3,48.36,24.24,24.24,0,0,0,48.6,24.18m-46.39,0a22.09,22.09,0,1,1,22.09,22,22,22,0,0,1-22.09-22"/><path class="cls-2" d="M25.42,27.7a1.53,1.53,0,0,1-2.14,0l-1.21-1.2L17.46,31H31.2l-4.62-4.44Zm8.15-10.32H15.11l9.19,9.07Zm-19.9.76V31h1.56L21,25.38ZM33.46,31h1.48V18.23l-7.19,7.15Zm3,0a1.51,1.51,0,0,1-1.51,1.51H13.67A1.51,1.51,0,0,1,12.15,31V17.38a1.51,1.51,0,0,1,1.52-1.51H34.94a1.51,1.51,0,0,1,1.51,1.51Z"/></g></g></svg>