<svg xmlns="http://www.w3.org/2000/svg" viewBox="0 0 86.75 86.75"><defs><style>.cls-1{fill:#ffffff;}</style></defs><g id="Capa_2" data-name="Capa 2"><g id="Layer_1" data-name="Layer 1"><path class="cls-1" d="M43.37,0A43.38,43.38,0,1,0,86.75,43.38,43.43,43.43,0,0,0,43.37,0Zm0,81.19A37.82,37.82,0,1,1,81.19,43.38,37.86,37.86,0,0,1,43.37,81.19Z"/><path class="cls-1" d="M62.77,23.34a8,8,0,0,0-7.84,6.48H21.37a2.55,2.55,0,0,0-1.77.72h0l0,0h0a2.52,2.52,0,0,0-.73,1.77V58.84a2.51,2.51,0,0,0,.7,1.74l0,0a.27.27,0,0,0,.08.07,2.49,2.49,0,0,0,1.73.69h41A2.54,2.54,0,0,0,65,58.84V39a8,8,0,0,0-2.18-15.66Zm-8,8.69a7.83,7.83,0,0,0,1.24,3.62l-14,10.78a.32.32,0,0,1-.41,0L23,32ZM21,57.7V33.27l14.22,11Zm1.64,1.48L37,45.62l3.31,2.55a2.48,2.48,0,0,0,1.55.54,2.58,2.58,0,0,0,1.56-.53l3.31-2.56L61.1,59.18ZM62.75,57.7,48.53,44.25l9-6.93a8,8,0,0,0,5.25,2ZM65,36.86a5.84,5.84,0,0,1-2.18.42h0a5.84,5.84,0,0,1-3.6-1.23,6,6,0,0,1-2.3-4c0-.23,0-.47,0-.7a5.79,5.79,0,0,1,.2-1.51,6,6,0,1,1,7.94,7Z"/><path class="cls-1" d="M63.18,35.8a1,1,0,0,1-1-1V29.94l-1.2.94a1,1,0,1,1-1.25-1.59l2.84-2.23A1,1,0,0,1,63.62,27a1,1,0,0,1,.57.91v6.93A1,1,0,0,1,63.18,35.8Z"/></g></g></svg>