<svg xmlns="http://www.w3.org/2000/svg" viewBox="0 0 51.92 38.04"><defs><style>.cls-1{fill:#ea3d81;}</style></defs><g id="Capa_2" data-name="Capa 2"><g id="Layer_1" data-name="Layer 1"><path class="cls-1" d="M43.93,0a8,8,0,0,0-7.84,6.48H2.54A2.51,2.51,0,0,0,.77,7.2h0l0,0h0A2.58,2.58,0,0,0,0,9V35.5a2.54,2.54,0,0,0,.69,1.74l0,0,.08.08A2.54,2.54,0,0,0,2.54,38h41a2.54,2.54,0,0,0,2.54-2.54V15.66A8,8,0,0,0,43.93,0ZM36,8.68a7.91,7.91,0,0,0,1.25,3.62l-14,10.79a.36.36,0,0,1-.42,0L4.21,8.68ZM2.2,34.36V9.92l14.23,11Zm1.65,1.48L18.19,22.27l3.31,2.56a2.52,2.52,0,0,0,3.12,0l3.31-2.56L42.27,35.84Zm40.06-1.48L29.69,20.91l9-6.94a7.89,7.89,0,0,0,5.24,2Zm2.21-20.84a5.89,5.89,0,0,1-2.19.42h0a6,6,0,0,1-3.6-1.24,6,6,0,0,1-2.29-4A5.37,5.37,0,0,1,38,8a6.16,6.16,0,0,1,.19-1.5,6,6,0,1,1,7.95,7Z"/><path class="cls-1" d="M44.34,12.46a1,1,0,0,1-1-1V6.6l-1.2.94a1,1,0,1,1-1.25-1.6l2.84-2.22a1,1,0,0,1,1.64.8v6.93A1,1,0,0,1,44.34,12.46Z"/></g></g></svg>