<svg xmlns="http://www.w3.org/2000/svg" viewBox="0 0 86.75 86.75"><defs><style>.cls-1,.cls-2{fill:#ffffff;}.cls-1{fill-rule:evenodd;}</style></defs><g id="Capa_2" data-name="Capa 2"><g id="Layer_1" data-name="Layer 1"><path class="cls-1" d="M37.16,43.56V66.71a.6.6,0,0,0,.6.6h8.59a.6.6,0,0,0,.6-.6V43.19h6.24a.61.61,0,0,0,.6-.56l.6-7.08a.61.61,0,0,0-.61-.66H47v-5a2.14,2.14,0,0,1,2.14-2.14h4.8a.6.6,0,0,0,.6-.6V20a.6.6,0,0,0-.6-.6H45.78a8.62,8.62,0,0,0-8.62,8.62v6.83h-4.3a.6.6,0,0,0-.6.61v7.08a.6.6,0,0,0,.6.61h4.3Z"/><path class="cls-2" d="M43.37,0A43.38,43.38,0,1,0,86.75,43.38,43.43,43.43,0,0,0,43.37,0ZM81.19,43.38A37.82,37.82,0,1,1,43.37,5.56,37.87,37.87,0,0,1,81.19,43.38Z"/></g></g></svg>