<svg xmlns="http://www.w3.org/2000/svg" viewBox="0 0 51.14 50.89"><defs><style>.cls-1{fill:#eb3d82;fill-rule:evenodd;}</style></defs><g id="Capa_2" data-name="Capa 2"><g id="Capa_1-2" data-name="Capa 1"><path class="cls-1" d="M51.14,25.45A25.57,25.57,0,1,0,25.57,50.89,25.52,25.52,0,0,0,51.14,25.45m-48.81,0A23.25,23.25,0,1,1,25.57,48.58,23.18,23.18,0,0,1,2.33,25.45"/><path class="cls-1" d="M26.55,40.13V25.45h4.86l.78-4.87H26.55V18.14c0-1.28.42-2.49,2.24-2.49h3.67V10.8h-5.2c-4.37,0-5.56,2.87-5.56,6.83v2.95h-3v4.87h3V40.13Z"/></g></g></svg>