<svg xmlns="http://www.w3.org/2000/svg" viewBox="0 0 22.24 47.87"><defs><style>.cls-1{fill:#ea3d81;fill-rule:evenodd;}</style></defs><g id="Capa_2" data-name="Capa 2"><g id="Layer_1" data-name="Layer 1"><path class="cls-1" d="M4.9,24.12V47.27a.6.6,0,0,0,.6.6h8.6a.6.6,0,0,0,.6-.6V23.75h6.23a.61.61,0,0,0,.6-.56l.6-7.08a.61.61,0,0,0-.6-.66H14.7v-5a2.13,2.13,0,0,1,2.13-2.14h4.81a.6.6,0,0,0,.6-.6V.6a.6.6,0,0,0-.6-.6H13.52A8.62,8.62,0,0,0,4.9,8.62v6.83H.6a.6.6,0,0,0-.6.61v7.08a.6.6,0,0,0,.6.61H4.9Z"/></g></g></svg>