<svg xmlns="http://www.w3.org/2000/svg" viewBox="0 0 45.95 45.72"><defs><style>.cls-1{fill:#fff;fill-rule:evenodd;}</style></defs><g id="Capa_2" data-name="Capa 2"><g id="Capa_1-2" data-name="Capa 1"><path class="cls-1" d="M46,22.86A23,23,0,1,0,23,45.72,22.92,22.92,0,0,0,46,22.86m-43.86,0A20.89,20.89,0,1,1,23,43.64,20.84,20.84,0,0,1,2.09,22.86"/><path class="cls-1" d="M23.85,36.05V22.86h4.37l.7-4.37H23.85v-2.2c0-1.14.38-2.23,2-2.23h3.29V9.7H24.49c-3.92,0-5,2.58-5,6.14v2.65H16.81v4.37H19.5V36.05Z"/></g></g></svg>