<svg xmlns="http://www.w3.org/2000/svg" viewBox="0 0 77.71 118.17"><defs><style>.cls-1{fill:#fff;}</style></defs><g id="Capa_2" data-name="Capa 2"><g id="Capa_1-2" data-name="Capa 1"><path class="cls-1" d="M40.75,56.16a2.14,2.14,0,0,1-1.52-.63L14.67,31.09a18.17,18.17,0,0,1,0-25.76,18.41,18.41,0,0,1,25.9,0l.19.19L41,5.33a18.38,18.38,0,0,1,25.89,0,18.16,18.16,0,0,1,0,25.76h0L42.28,55.53a2.15,2.15,0,0,1-1.53.63M27.62,4.3a13.92,13.92,0,0,0-9.9,23.76L40.75,51l23-22.91h0a13.87,13.87,0,0,0,0-19.69A14.06,14.06,0,0,0,44,8.37l-1.72,1.71a2.16,2.16,0,0,1-1.53.63h0a2.21,2.21,0,0,1-1.53-.64L37.51,8.36A14,14,0,0,0,27.62,4.3"/><path class="cls-1" d="M31.74,118.17a2.16,2.16,0,0,1-1.37-.5L10.45,101.3a2,2,0,0,1-.39-.42l-9-12.64A1.5,1.5,0,0,1,.94,88,8.15,8.15,0,0,1,.39,81.7a8.24,8.24,0,0,1,4.09-4.84,8.33,8.33,0,0,1,11.11,3.39A96.18,96.18,0,0,0,22,88.31l2.34,1,0-19.4s0-.1,0-.16l.05-24.62a8.28,8.28,0,0,1,8.29-8.23h0A8.29,8.29,0,0,1,41,45.12l-.44,15.29a8.22,8.22,0,0,1,3.77-.9h0a8.29,8.29,0,0,1,6.42,3.06l.27-.22a8.46,8.46,0,0,1,7.22-1.44,9.28,9.28,0,0,1,6.25,4.76,8.32,8.32,0,0,1,4.89-1.58h0a8.26,8.26,0,0,1,8.29,8.27l-.08,36.77a2.16,2.16,0,0,1-2.16,2.14h0a2.15,2.15,0,0,1-2.15-2.15l.07-36.77a3.87,3.87,0,0,0-1.15-2.8,4,4,0,0,0-2.81-1.17h0a4,4,0,0,0-4,3.74v.27a2.16,2.16,0,0,1-4.32-.06c0-.13,0-.26,0-.38l.05-2a4.73,4.73,0,0,0-4-4.83,4.16,4.16,0,0,0-3.52.67,2.55,2.55,0,0,0-1.07,2,2.15,2.15,0,0,1-2.16,2.14h0a2.16,2.16,0,0,1-2.16-2.15,4,4,0,0,0-4-4h0a4,4,0,0,0-4,3.71v.29A2.16,2.16,0,0,1,36,67.75c0-.14,0-.28,0-.41l.63-22.29a4,4,0,0,0-4-3.9h0a4,4,0,0,0-4,3.94l0,24.68s0,.1,0,.15l0,22.52a2.14,2.14,0,0,1-.95,1.77,2.18,2.18,0,0,1-2,.22c-1.23-.49-5.27-2.1-5.73-2.31-1.7-.79-7.9-9.42-8-9.5l-.15-.25A4,4,0,0,0,4.71,85.9l8.71,12.27,19.7,16.19a2.15,2.15,0,0,1,.29,3,2.19,2.19,0,0,1-1.67.78"/></g></g></svg>