<svg xmlns="http://www.w3.org/2000/svg" viewBox="0 0 36.75 36.75"><defs><style>.cls-1{fill:#ea3d81;}</style></defs><g id="Capa_2" data-name="Capa 2"><g id="Layer_1" data-name="Layer 1"><path class="cls-1" d="M30.23,8.56A2.13,2.13,0,1,1,28.1,6.43,2.13,2.13,0,0,1,30.23,8.56Zm-2.65,9.56a9,9,0,1,1-9-9A9,9,0,0,1,27.58,18.12Zm-3.22,0a5.74,5.74,0,1,0-5.74,5.73A5.74,5.74,0,0,0,24.36,18.12Zm12.39-7.2A10.92,10.92,0,0,0,25.83,0H10.92A10.92,10.92,0,0,0,0,10.92V25.83A10.92,10.92,0,0,0,10.92,36.75H25.83A10.92,10.92,0,0,0,36.75,25.83ZM33.16,25.66a7.5,7.5,0,0,1-7.5,7.5H11.09a7.5,7.5,0,0,1-7.5-7.5V11.09a7.49,7.49,0,0,1,7.5-7.5H25.66a7.5,7.5,0,0,1,7.5,7.5Z"/></g></g></svg>