<svg xmlns="http://www.w3.org/2000/svg" viewBox="0 0 114.67 103.63"><defs><style>.cls-1{fill:#ea3d81;}.cls-2{fill:#fff;}</style></defs><g id="Capa_2" data-name="Capa 2"><g id="Capa_1-2" data-name="Capa 1"><rect class="cls-1" width="114.67" height="103.63"/><path class="cls-2" d="M40,44.57H26.31a7.72,7.72,0,0,1-5.24-1.78,6.46,6.46,0,0,1-2-5.13V23.44h2.77v14.7A4.14,4.14,0,0,0,23.19,41a4.32,4.32,0,0,0,3.09.87H40Z"/><path class="cls-2" d="M73.09,44.57H70.33V32.47A6.1,6.1,0,0,0,68.41,28a6.28,6.28,0,0,0-9,0,6.1,6.1,0,0,0-1.92,4.5v12.1H54.75V32.76a9.21,9.21,0,0,1,2.61-6.7,9.39,9.39,0,0,1,13.12,0,9.21,9.21,0,0,1,2.61,6.7Z"/><path class="cls-2" d="M95.62,34.18V44.57H92.86V41.33a10.34,10.34,0,0,1-15.52.41,10.55,10.55,0,0,1-3-7.52,10.69,10.69,0,0,1,3.23-7.8,10,10,0,0,1,7.74-3.07,10.43,10.43,0,0,1,7.41,3.33,10,10,0,0,1,2.91,7.5M92.86,34a8,8,0,0,0-2.34-5.61A7.28,7.28,0,0,0,85.1,26a7.68,7.68,0,0,0-5.64,2.33A7.84,7.84,0,0,0,77.09,34a8,8,0,0,0,2.17,5.74,7.54,7.54,0,0,0,5.4,2.6A7.33,7.33,0,0,0,90.5,40a8.15,8.15,0,0,0,2.36-6"/><path class="cls-2" d="M41.38,37C33.77,37,27.6,29.84,27.6,21a17.82,17.82,0,0,1,.3-3.29,17.94,17.94,0,0,0-1.26,6.66c0,8.83,6.17,16,13.77,16,6.64,0,12.17-5.45,13.48-12.7-2.18,5.5-7,9.33-12.51,9.33"/><path class="cls-2" d="M32.29,53.49a4,4,0,0,1-4,4H25.57v-8h2.32a4.51,4.51,0,0,1,3.16,1.14,3.78,3.78,0,0,1,1.24,2.87m-.82-.12a3,3,0,0,0-1-2.24,3.51,3.51,0,0,0-2.4-.9H26.34v6.5h1.91a3.06,3.06,0,0,0,2.31-1,3.12,3.12,0,0,0,.91-2.36"/><path class="cls-2" d="M37.38,57.48H35.07A2.15,2.15,0,0,1,33.59,57,1.79,1.79,0,0,1,33,55.52V51.44A1.8,1.8,0,0,1,33.59,50a2.15,2.15,0,0,1,1.48-.51h2.31v.75H35.07a1.22,1.22,0,0,0-.88.25,1.26,1.26,0,0,0-.4.83V53h2.69v.77H33.79v1.84a1.1,1.1,0,0,0,1.28,1.08h2.31Z"/><path class="cls-2" d="M61.92,64.78h-2.2V55a4.87,4.87,0,0,0-1-3.15,3.43,3.43,0,0,0-2.79-1.31,4.38,4.38,0,0,0-3,1.14,3.68,3.68,0,0,0-1.26,2.84V64.78H49.35V54.55a3.68,3.68,0,0,0-1.26-2.84,4.39,4.39,0,0,0-3-1.14,3.36,3.36,0,0,0-2.76,1.29,4.93,4.93,0,0,0-1,3.17v9.75h-2.2v-9.5a6.71,6.71,0,0,1,1.7-4.8A6.24,6.24,0,0,1,45,48.56a5.67,5.67,0,0,1,5.51,3,5.72,5.72,0,0,1,5.53-3,6.38,6.38,0,0,1,4.21,1.92,6.68,6.68,0,0,1,1.72,4.8Z"/><path class="cls-2" d="M66.33,47H64.21V43.29h2.12Zm0,17.78H64.21V48.89h2.12Z"/><path class="cls-2" d="M85.08,57.56H70.81a5.9,5.9,0,0,0,2,4,6,6,0,0,0,4.2,1.53,5.65,5.65,0,0,0,5.39-3.48h2.25A8.21,8.21,0,0,1,77,65.17a7.81,7.81,0,0,1-5.76-2.38,8.29,8.29,0,0,1,0-12,7.82,7.82,0,0,1,6.15-2.38,8.12,8.12,0,0,1,5.51,2.62,7.61,7.61,0,0,1,2.26,5.35Zm-2.08-2A6.21,6.21,0,0,0,80.9,52,6.39,6.39,0,0,0,73,52a6.11,6.11,0,0,0-2.16,3.65Z"/><rect class="cls-2" x="86.98" y="45.59" width="2.12" height="19.19"/><path class="cls-2" d="M14.29,87.37l1.12-8.05h1.27l-1.13,8.05Z"/><path class="cls-2" d="M17.7,81.62H19l-.81,5.75H16.9ZM18,79.55h1.26L19,81.06H17.77Z"/><path class="cls-2" d="M22.11,81.06l-.07.56h1.28l-.12.91H21.9l-1,7.14H19.63l1-7.14h-.81l.11-.83.84-.08.08-.65a2,2,0,0,1,.57-1.26,2.08,2.08,0,0,1,1.41-.39,4.36,4.36,0,0,1,.94.1l-.25,1a3.85,3.85,0,0,0-.55-.06,1,1,0,0,0-.62.16A.8.8,0,0,0,22.11,81.06Z"/><path class="cls-2" d="M28.62,84.74H24.8c-.12,1.13.38,1.7,1.5,1.7a6.43,6.43,0,0,0,1.82-.23v1a8.19,8.19,0,0,1-2.16.27q-2.94,0-2.51-3a3,3,0,0,1,3.3-3,2.14,2.14,0,0,1,1.68.54,1.88,1.88,0,0,1,.41,1.39A5.23,5.23,0,0,1,28.62,84.74Zm-2.06-2.25A1.61,1.61,0,0,0,24.9,84h2.58a2.27,2.27,0,0,0,.11-.53.85.85,0,0,0-.22-.68A1.08,1.08,0,0,0,26.56,82.49Z"/><path class="cls-2" d="M34.29,85.68A1.89,1.89,0,0,1,33.53,87a2.84,2.84,0,0,1-1.69.46,10,10,0,0,1-2.51-.27l.37-1a8.48,8.48,0,0,0,2.14.27,1.28,1.28,0,0,0,.86-.24.76.76,0,0,0,.31-.47.42.42,0,0,0-.19-.43,2.43,2.43,0,0,0-.86-.28,3.55,3.55,0,0,1-1.56-.61A1.26,1.26,0,0,1,30,83.18c.15-1.12,1-1.67,2.43-1.67a9.62,9.62,0,0,1,2.32.26l-.37,1a8.42,8.42,0,0,0-2-.26,1.3,1.3,0,0,0-.81.2.7.7,0,0,0-.29.42.46.46,0,0,0,.17.43,2.1,2.1,0,0,0,.81.31l.66.16a3.44,3.44,0,0,1,.58.21,1.54,1.54,0,0,1,.48.32,1.47,1.47,0,0,1,.27.46A1.54,1.54,0,0,1,34.29,85.68Z"/><path class="cls-2" d="M35.92,85.72l.45-3.19h-.82l.12-.83.84-.08L36.87,80H38l-.22,1.61h1.52l-.13.91H37.63l-.4,3a1,1,0,0,0,.09.73.76.76,0,0,0,.67.25,4,4,0,0,0,.56-.06v1a6.72,6.72,0,0,1-1.13.09,1.57,1.57,0,0,1-1.27-.42A1.7,1.7,0,0,1,35.92,85.72Z"/><path class="cls-2" d="M41.75,87.47l-1.37-5.85h1.43l.86,4.45h0l2-4.45h1.34l-2.93,6a4.59,4.59,0,0,1-1.21,1.66,2.49,2.49,0,0,1-1.55.48,4.45,4.45,0,0,1-.93-.09l.26-1a3,3,0,0,0,.53.06C40.84,88.71,41.34,88.29,41.75,87.47Z"/><path class="cls-2" d="M46.43,87.37l1.13-8.05h1.26L47.7,87.37Z"/><path class="cls-2" d="M54.48,84.74H50.66c-.11,1.13.39,1.7,1.51,1.7A6.48,6.48,0,0,0,54,86.21v1a8.19,8.19,0,0,1-2.16.27c-2,0-2.8-1-2.51-3a3,3,0,0,1,3.3-3,2.13,2.13,0,0,1,1.67.54,1.84,1.84,0,0,1,.41,1.39A5.23,5.23,0,0,1,54.48,84.74Zm-2.06-2.25A1.6,1.6,0,0,0,50.77,84h2.57a2.38,2.38,0,0,0,.12-.53.89.89,0,0,0-.22-.68A1.09,1.09,0,0,0,52.42,82.49Z"/><path class="cls-2" d="M59.73,81.62l-.09.58h0a2.36,2.36,0,0,1,.81-.5,2.56,2.56,0,0,1,1-.19c1.41,0,2,1,1.7,3a4.4,4.4,0,0,1-.83,2.17,2.15,2.15,0,0,1-1.78.82A1.86,1.86,0,0,1,59,86.83h0l-.4,2.84H57.32l1.14-8Zm2.08,2.88q.25-1.95-1-2a2.22,2.22,0,0,0-1.26.43l-.43,3a1.72,1.72,0,0,0,1.15.42C61.11,86.44,61.62,85.79,61.81,84.5Z"/><path class="cls-2" d="M67.67,87.37l.1-.57h0a2.47,2.47,0,0,1-.82.5,2.61,2.61,0,0,1-1,.19c-1.41,0-2-1-1.68-3a4.3,4.3,0,0,1,.82-2.17,2.11,2.11,0,0,1,1.78-.82,2.32,2.32,0,0,1,.89.18,1.76,1.76,0,0,1,.69.47h0l.31-.57h1l-.81,5.78ZM65.6,84.5c-.18,1.29.15,1.94,1,1.94A2.34,2.34,0,0,0,67.88,86l.43-3a1.81,1.81,0,0,0-1.15-.43Q65.86,82.55,65.6,84.5Z"/><path class="cls-2" d="M72.14,83.26l-.57,4.11H70.31l.8-5.75h1.27l-.13.92h0a3.85,3.85,0,0,1,1-.73,2.62,2.62,0,0,1,1.22-.3l-.16,1.19A4.62,4.62,0,0,0,72.14,83.26Z"/><path class="cls-2" d="M77.92,87.37,78,86.8h0a2.57,2.57,0,0,1-.82.5,2.63,2.63,0,0,1-1,.19c-1.41,0-2-1-1.67-3a4.3,4.3,0,0,1,.81-2.17,2.14,2.14,0,0,1,1.78-.82,2.33,2.33,0,0,1,.9.18,1.84,1.84,0,0,1,.69.47h0l.31-.57h1l-.81,5.78ZM75.85,84.5c-.18,1.29.15,1.94,1,1.94A2.34,2.34,0,0,0,78.13,86l.42-3a1.79,1.79,0,0,0-1.15-.43C76.54,82.55,76,83.2,75.85,84.5Z"/><path class="cls-2" d="M86.55,87.37l.08-.57h0a2.47,2.47,0,0,1-.82.5,2.61,2.61,0,0,1-1,.19c-1.41,0-2-1-1.68-3A4.3,4.3,0,0,1,84,82.33a2.13,2.13,0,0,1,1.78-.82,1.87,1.87,0,0,1,1.52.65h0l.4-2.84h1.27l-1.13,8.05ZM84.46,84.5c-.18,1.29.15,1.94,1,1.94A2.32,2.32,0,0,0,86.74,86l.43-3A1.81,1.81,0,0,0,86,82.55Q84.72,82.55,84.46,84.5Z"/><path class="cls-2" d="M91.74,87.49c-1.81,0-2.58-1-2.29-3s1.32-3,3.13-3,2.59,1,2.3,3S93.55,87.49,91.74,87.49Zm1.7-4.43a1,1,0,0,0-1-.51,1.35,1.35,0,0,0-1.15.51,3,3,0,0,0-.51,1.44c-.2,1.29.17,1.94,1.1,1.94a1.34,1.34,0,0,0,1.14-.5,3.2,3.2,0,0,0,.52-1.44A2.67,2.67,0,0,0,93.44,83.06Z"/><path class="cls-2" d="M100.52,85.68A1.89,1.89,0,0,1,99.76,87a2.82,2.82,0,0,1-1.69.46,10,10,0,0,1-2.51-.27l.37-1a8.54,8.54,0,0,0,2.14.27,1.33,1.33,0,0,0,.87-.24.7.7,0,0,0,.3-.47.42.42,0,0,0-.19-.43,2.36,2.36,0,0,0-.85-.28,3.45,3.45,0,0,1-1.56-.61,1.28,1.28,0,0,1-.39-1.27c.16-1.12,1-1.67,2.43-1.67a9.56,9.56,0,0,1,2.32.26l-.37,1a8.42,8.42,0,0,0-2-.26,1.3,1.3,0,0,0-.81.2.64.64,0,0,0-.28.42.44.44,0,0,0,.16.43,2.18,2.18,0,0,0,.81.31l.67.16a3.71,3.71,0,0,1,.57.21,1.54,1.54,0,0,1,.48.32,1.3,1.3,0,0,1,.27.46A1.39,1.39,0,0,1,100.52,85.68Z"/></g></g></svg>