 <svg xmlns="http://www.w3.org/2000/svg" viewBox="0 0 192.904 192.904" xmlns:v="https://vecta.io/nano"  fill="#eb3d82" ><path d="M190.707 180.101l-47.078-47.077c11.702-14.072 18.752-32.142 18.752-51.831C162.381 36.423 125.959 0 81.191 0S0 36.423 0 81.193s36.422 81.187 81.191 81.187c19.688 0 37.759-7.049 51.831-18.751l47.079 47.078c1.464 1.465 3.384 2.197 5.303 2.197s3.839-.732 5.304-2.197a7.5 7.5 0 0 0-.001-10.606zM15 81.193C15 44.694 44.693 15 81.191 15s66.189 29.694 66.189 66.193-29.692 66.187-66.189 66.187S15 117.689 15 81.193z"/></svg>